<svg xmlns="http://www.w3.org/2000/svg" width="390" height="844" viewBox="0 0 390 844" role="img" aria-label="Gorz Phase 3 home screen prototype screenshot">
  <defs>
    <linearGradient id="screen" x1="0" x2="1" y1="0" y2="1">
      <stop offset="0" stop-color="#071018"/>
      <stop offset="1" stop-color="#0b1722"/>
    </linearGradient>
    <style>
      .bg { fill: url(#screen); }
      .card { fill: #172431; stroke: #314454; stroke-width: 1; }
      .panel { fill: #101820; stroke: #263545; stroke-width: 1; }
      .title { font: 700 30px "Ubuntu Sans", "DejaVu Sans", Arial, sans-serif; fill: #eaf6ff; }
      .h2 { font: 700 19px "Ubuntu Sans", "DejaVu Sans", Arial, sans-serif; fill: #eaf6ff; }
      .body { font: 500 13px "Ubuntu Sans", "DejaVu Sans", Arial, sans-serif; fill: #afc4d5; }
      .label { font: 700 11px "Ubuntu Sans", "DejaVu Sans", Arial, sans-serif; fill: #cfefff; letter-spacing: .2px; }
      .mono { font: 600 12px "Ubuntu Mono", "DejaVu Sans Mono", monospace; fill: #eaf6ff; }
      .cyan { fill: #23c7ff; }
      .green { fill: #42e686; }
      .amber { fill: #ffbf47; }
      .red { fill: #ff6b6b; }
      .muted { fill: #314454; }
    </style>
  </defs>
  <rect class="bg" x="0" y="0" width="390" height="844"/>
  <rect x="18" y="20" width="354" height="804" rx="34" fill="none" stroke="#263545" stroke-width="3"/>
  <text class="title" x="34" y="72">Gorz</text>
  <text class="body" x="34" y="96">Adaptive access profile prototype</text>
  <rect class="card" x="24" y="124" width="342" height="150" rx="8"/>
  <text class="label" x="42" y="154">STATUS</text>
  <text class="h2" x="42" y="187">Demo Session Active</text>
  <text class="body" x="42" y="212">Local VPN lifecycle only.</text>
  <circle cx="306" cy="187" r="41" fill="none" stroke="#314454" stroke-width="10"/>
  <path d="M306 146 A41 41 0 1 1 268 202" fill="none" stroke="#23c7ff" stroke-width="10" stroke-linecap="round"/>
  <text class="h2" x="286" y="194">90</text>
  <rect x="42" y="232" width="112" height="26" rx="13" fill="#263545"/>
  <text class="mono" x="55" y="249">demo_split</text>
  <rect x="164" y="232" width="145" height="26" rx="13" fill="#12384a"/>
  <text class="mono" x="178" y="249">Offline Demo Mode</text>
  <rect x="24" y="294" width="342" height="56" rx="8" fill="#23c7ff"/>
  <text x="166" y="329" font-family="Ubuntu Sans, DejaVu Sans, Arial" font-size="16" font-weight="700" fill="#00131c">Disconnect</text>
  <rect class="panel" x="24" y="372" width="342" height="122" rx="8"/>
  <text class="label" x="42" y="400">SESSION SNAPSHOT</text>
  <text class="body" x="42" y="426">Profile expiry</text>
  <text class="mono" x="250" y="426">14m 58s</text>
  <text class="body" x="42" y="454">Last validation</text>
  <text class="green" x="250" y="454" font-family="Ubuntu Sans, DejaVu Sans, Arial" font-size="13" font-weight="700">passed</text>
  <text class="body" x="42" y="482">Applied route</text>
  <text class="mono" x="250" y="482">10.77.0.0/24</text>
  <text class="label" x="24" y="530">QUICK LINKS</text>
  <g>
    <rect class="card" x="24" y="548" width="160" height="58" rx="8"/>
    <text class="h2" x="42" y="583">Session</text>
    <rect class="card" x="206" y="548" width="160" height="58" rx="8"/>
    <text class="h2" x="224" y="583">Confidence</text>
    <rect class="card" x="24" y="622" width="160" height="58" rx="8"/>
    <text class="h2" x="42" y="657">Diagnostics</text>
    <rect class="card" x="206" y="622" width="160" height="58" rx="8"/>
    <text class="h2" x="224" y="657">Evidence</text>
    <rect class="card" x="24" y="696" width="160" height="58" rx="8"/>
    <text class="h2" x="42" y="731">Audit</text>
    <rect class="card" x="206" y="696" width="160" height="58" rx="8"/>
    <text class="h2" x="224" y="731">Settings</text>
  </g>
  <rect x="0" y="780" width="390" height="64" fill="#101820"/>
  <text class="cyan" x="37" y="817" font-family="Ubuntu Sans, DejaVu Sans, Arial" font-size="12" font-weight="700">Home</text>
  <text class="body" x="104" y="817">Session</text>
  <text class="body" x="181" y="817">Confidence</text>
  <text class="body" x="284" y="817">Evidence</text>
</svg>
